<?xml version="1.0" standalone="yes"?>
<svg xmlns="http://www.w3.org/2000/svg" viewBox="0 0 200 300">
<path style="fill:#24303b; stroke:none;" d="M16 112C14.7464 108.726 13.7361 105.359 12.7199 102C11.9853 99.5716 11.5282 96.4869 9.48688 94.7469C6.38428 92.1023 2.21893 94.2453 1.61806 98.0193C1.19392 100.683 2.53363 103.506 3.28009 106C5.21323 112.46 6.28479 123.525 10.7276 128.682C13.15 131.494 16.8432 130.904 20 129.907C26.7494 127.774 33.5035 124.795 39.9992 121.985C42.6763 120.826 46.181 119.31 46.534 115.976C46.8849 112.661 43.8551 111.141 40.9954 111.163C35.6983 111.204 29.5737 114.564 25 117C43.2733 73.3408 100.495 57.271 140 81.2045C151.941 88.4386 162.394 99.0002 169.547 111C172.394 115.776 173.892 121.142 176.557 125.941C178.27 129.026 183.237 131.785 185.642 127.682C188.321 123.11 183.476 115.123 181.514 111C173.981 95.1739 161.858 82.2358 147 73.0648C111.673 51.2601 63.3273 56.7679 34 86.0008C26.6659 93.3113 18.9848 101.853 16 112M78 177L80 177C81.8979 170.579 81.7178 162.218 79.1235 156C74.3582 144.579 64.5029 135.292 65.6798 122C68.0882 94.7993 100.88 81.6384 120.96 100.184C124.773 103.706 127.636 108.184 129.535 113C138.875 136.675 110.86 152.844 118 177L120 177C121.843 170.765 120.106 164.175 122.468 158C125.174 150.926 130.203 144.992 133.123 138C137.78 126.851 136.109 114.267 130.123 104C113.968 76.2872 68.1439 84.4999 62.4645 116C61.058 123.801 61.5823 132.77 64.9012 140C67.9326 146.604 72.9171 152.165 75.5316 159C77.7725 164.858 76.2519 171.086 78 177M80 129C79.2913 135.383 81.1988 141.723 82.2469 148C83.8439 157.564 84.5837 167.894 88 177L90 177C91.0695 172.062 89.5778 166.948 88.7531 162C87.2506 152.985 85.6922 143.981 84 135C89.6924 136.505 93.5594 137.658 98 133C103.54 137.422 107.84 137.229 114 134C112.893 148.012 109.602 162.192 107 176L108 177L110 177C114.89 166.896 115.249 153.056 117.08 142C117.517 139.363 120.059 132.044 117.357 130.121C114.335 127.971 109.307 132.145 106 131.962C103.476 131.823 101.479 129.991 99 129.736C96.0749 129.435 93.8408 131.689 91 131.831C87.4033 132.01 83.563 129.613 80 129M174 176C155.495 223.698 98.5939 246.657 54 218.934C36.4252 208.009 27.8715 192.87 18.8951 175.109C17.3969 172.144 13.5388 169.707 10.6042 172.607C8.66014 174.528 9.15207 177.64 9.78627 180C11.4904 186.342 14.8197 192.425 18.2045 198C31.7836 220.366 55.3549 235.597 81 239.919C112.919 245.298 145.924 233.648 166.996 208.999C171.174 204.112 174.787 198.713 177.742 193C180.014 188.605 181.542 183.563 185 180C185.426 184.881 186.557 191.599 189.279 195.772C190.888 198.239 194.081 199.471 196.562 197.381C199.485 194.92 198.269 191.079 197.34 188C195.331 181.35 193.594 174.566 191.326 168.001C190.208 164.765 188.871 161.499 184.981 161.252C177.922 160.805 168.452 166.805 162 169.4C159.525 170.395 156.359 171.263 154.608 173.418C148.605 180.806 161.05 180.848 165 179.384C168.01 178.269 170.957 177.029 174 176M118 188L118 190L87 190C83.7847 190.007 77.9126 189.466 77.5463 194.015C77.1692 198.697 82.7391 198.951 86 198.996C96.6622 199.145 107.337 199 118 199C109.439 201.531 98.9011 200 90 200C86.8894 200 81.2077 198.95 78.6042 201.028C74.3797 204.399 79.6098 208.505 83.0046 208.891C94.3803 210.187 106.548 209 118 209C105.545 212.682 91.4555 207.318 79 211L79 213C89.2 216.015 102.378 214.072 113 213.999C116.438 213.976 123.172 213.521 121.338 208.144C119.981 204.166 114.253 205.001 111 205L81 205C89.5616 202.469 100.099 204.001 109 204C112.376 204 117.739 204.878 120.396 202.258C124.981 197.735 118.75 195.076 114.999 195.005C103.675 194.791 92.3265 195 81 195C88.6967 190.893 100.418 193 109 193C112.112 193 117.791 194.05 120.396 191.972C124.791 188.467 119.288 185.165 115.995 185.019C104.378 184.507 92.6294 185 81 185L81 183L122 183L122 180L88 180C84.8459 180 78.2506 178.849 77.3765 183.129C76.3044 188.378 82.6713 187.993 86 188L118 188z"/>
</svg>
