<?xml version="1.0" standalone="yes"?>
<svg xmlns="http://www.w3.org/2000/svg" viewBox="0 0 200 300">
<path style="fill:#24303b; stroke:none;" d="M35.6042 69.0278C31.0785 72.6494 38.2479 80.7832 40.1389 84C48.0855 97.5184 55.9125 113.892 55.5448 130C55.1427 147.613 47.6213 163.868 44.615 181C42.2102 194.704 43.3441 209.581 46.8843 223C48.9715 230.911 52.8544 245.445 60.3256 249.973C65.8767 253.337 75.7755 252 82 252C96.8436 252 112.183 252.075 127 253.09C140.297 254 153.687 254.378 167 254.961C170.617 255.119 178.406 256.365 181.396 253.972C185.921 250.351 178.758 242.178 176.811 239C168.777 225.884 160.739 208.785 161.129 193C161.53 176.759 168.392 161.703 171.551 146C174.521 131.238 173.95 114.532 170.116 100C168.016 92.0399 163.793 76.4979 155.815 72.5139C149.964 69.5919 141.33 71 135 71C120.964 71 105.977 71.1604 92 69.8302C78.246 68.5214 63.8088 68.0674 50 68.0008C46.2998 67.9829 38.6626 66.5803 35.6042 69.0278z"/>
<path style="fill:#B78961; stroke:none;" d="M44 75C45.8202 80.7501 49.6506 85.5224 52.1358 91C58.4954 105.017 62.3644 118.528 61.9853 134C61.6226 148.806 55.6156 162.738 52.4252 177C49.2502 191.193 49.3958 205.919 53.1551 220C55.0532 227.11 58.2329 238.73 64.3287 243.397C70.123 247.832 82.9986 244.459 90 245.285C99.6594 246.425 109.302 245.615 119 246.039C136.964 246.826 154.998 248 173 248C170.815 241.997 166.988 236.79 164.309 231C157.677 216.664 154.346 202.818 155.039 187C155.718 171.533 162.316 157.044 165.195 142C167.621 129.321 166.926 116.516 163.87 104C162.044 96.5187 159.104 84.5282 152.671 79.6034C147.087 75.3286 134.767 78.4642 128 77.5756C119.049 76.4004 109.998 77.3546 101 76.9606C82.0259 76.1298 63.0194 75 44 75z"/>
<path style="fill:#24303b; stroke:none;" d="M64.3225 84.1173C61.2049 85.9549 63.0721 89.6612 64.3596 92C68.9367 100.315 72.5358 109.383 72.9606 119C73.3376 127.534 72.6938 135.68 70.7647 144C70.1026 146.855 67.9133 151.574 70.0316 154.258C72.6574 157.585 83.967 156.446 88 156.83C102.923 158.25 118.043 158.065 133 159.09C138.002 159.432 147.011 162.119 151.49 158.972C155.678 156.03 156.096 146.618 156.718 142C158.458 129.08 157.838 116.46 153.644 104C152.138 99.5243 150.082 93.6582 146.61 90.3171C141.898 85.7837 132.958 87.1313 127 86.9853C112.853 86.6387 98.0518 85.9435 84 84.2855C79.68 83.7758 75.332 84.1782 71 83.9113C68.9258 83.7834 66.2446 82.9844 64.3225 84.1173z"/>
<path style="fill:#B78961; stroke:none;" d="M72 91C77.5901 104.445 80.9253 117.264 79.9105 132C79.5138 137.76 77.7669 143.305 77 149C93.9447 150.337 110.999 151.598 128 152.015C132.972 152.136 142.055 155.215 146.436 151.972C149.616 149.618 149.667 142.574 150.246 139C152.049 127.885 150.775 115.476 146.547 105C145.263 101.819 143.639 96.9604 140.61 95.0278C136.691 92.528 129.511 94.1679 125 93.5756C107.775 91.3139 89.3802 91 72 91z"/>
<path style="fill:#24303b; stroke:none;" d="M69.0008 171.573C66.2696 172.116 59.0095 176.772 63.608 179.914C66.5241 181.907 72.0176 178.221 76 179.986C79.726 181.638 82.8295 183.565 87 183.907C95.7148 184.621 104.342 180.91 113 182.213C124.059 183.878 136.308 191.175 146.848 183.031C149.029 181.346 150.752 177.17 146.771 176.423C142.464 175.615 138.418 179.699 134 179.61C126.857 179.465 120.909 175.628 114 175.094C106.011 174.477 97.9784 177.204 90 176.942C82.6404 176.7 76.5821 170.064 69.0008 171.573M67.044 190.742C64.3144 191.855 60.6012 196.457 64.4344 198.713C67.5292 200.535 72.0799 196.847 76.0008 198.356C80.3341 200.025 84.2076 202.544 89 202.737C96.98 203.058 104.951 199.946 113 200.814C123.827 201.982 136.424 209.681 146.852 201.867C148.819 200.392 151.39 196.147 147.681 194.875C143.852 193.562 138.868 198.09 134.715 198.1C127.668 198.116 121.816 194.434 115 194.043C106.525 193.558 97.181 196.728 89 195.52C81.536 194.418 75.1691 187.429 67.044 190.742M69.1096 210.028C66.9639 211.242 63.8712 215.809 67.4491 217.342C70.4808 218.641 73.891 215.581 77.1698 216.329C81.6782 217.357 85.2823 220.432 90 220.895C98.6849 221.748 107.45 218.334 116 219.252C121.111 219.801 125.768 222.52 131 223.155C137.498 223.943 146.459 225.046 151.392 219.363C153.119 217.373 152.954 213.891 149.852 213.531C145.549 213.031 141.501 216.919 137 216.867C129.907 216.786 123.905 212.77 117 212.188C108.859 211.503 100.58 214.661 92.4244 214.107C84.7847 213.589 77.176 205.464 69.1096 210.028z"/>
</svg>
