<?xml version="1.0" standalone="yes"?>
<svg xmlns="http://www.w3.org/2000/svg" viewBox="0 0 200 300">
<path style="fill:#24303b; stroke:none;" d="M51 206L51 219L56 219C56 238.001 56.2025 269.784 82 270L82 264C62.0061 262.961 61.6356 233.804 61 219L67 219L67 206L72 206C72 209.472 71.4231 213.587 72.5841 216.91C73.4786 219.471 75.4214 221.266 75.8526 224.039C78.172 238.958 74.7753 262.163 93 268.867C95.9236 269.942 98.9299 269.974 102 270C101.415 262.497 91.3825 261.624 87.5293 254.999C81.7444 245.053 81.0075 231.254 81 220C90.0129 219.706 89 213.321 89 206L120 206C120 212.994 116.676 227.274 126 228C126.362 245.536 135.871 270.837 154 277C155.826 274.352 157.202 272.112 158 269C144.252 259.593 135.718 244.677 135 228C137.232 227.992 140.516 228.468 142.397 226.972C144.135 225.59 143.958 222.984 143.995 220.999C144.09 216.003 144 210.997 144 206L167 206C169.886 205.999 174.141 206.652 176.397 204.397C178.467 202.326 177.995 198.659 178 196L178 175L178 91L178 50C178 44.5134 179.151 37.6935 171.995 37.0586C159.862 35.9821 147.184 37 135 37L61 37L35 37C31.8498 37.0014 27.0663 36.2629 25.0278 39.3179C23.179 42.0884 24 46.8439 24 50L24 77L24 169L24 193C24 196.156 23.179 200.912 25.0278 203.682C26.5759 206.002 29.5158 205.949 32 205.995C38.3286 206.114 44.6701 206 51 206z"/>
<path style="fill:#B78961; stroke:none;" d="M30 43L30 200L172 200L172 43L30 43z"/>
<path style="fill:#24303b; stroke:none;" d="M139 137L77 137C72.0031 137 66.9968 136.91 62.0008 137.005C60.0191 137.042 57.4055 136.864 56.0278 138.603C54.6987 140.281 55.0145 143.008 55.0008 145C54.9698 149.492 52.664 163.054 58.1481 164.682C65.6082 166.897 76.2265 165 84 165L139 165C139 169.97 137.184 179.421 140.028 183.682C142.705 187.694 152.808 186.223 156.995 185.956C159.04 185.826 161.359 185.612 162.397 183.566C163.836 180.731 163 176.086 163 173L163 150L163 85C163 76.1448 165.278 63.6943 162.682 55.2284C161.758 52.2126 158.687 52.1003 155.999 52.0154C151.236 51.8649 140.969 50.0473 139.318 56.0586C137.218 63.7048 139 74.0805 139 82L139 137M105 77L67 77C67 71.6016 69.0481 60.9273 65.9722 56.3179C63.2953 52.3064 53.1916 53.777 49.0046 54.044C47.2717 54.1545 45.2151 54.2747 44.0278 55.7423C41.9534 58.3062 43 63.9266 43 67L43 92C43 95.1419 42.1766 99.7825 43.6034 102.682C45.4853 106.507 53.529 105 57 105L91 105C94.3281 105 100.615 106.175 103.397 103.972C105.564 102.255 104.995 98.4197 105 96L105 77z"/>
<path style="fill:#B78961; stroke:none;" d="M145 58L145 180L157 180L157 58L145 58M49 60L49 99L61 99L61 60L49 60M69 83L69 99L81 99L81 83L69 83M87 83L87 99L99 99L99 83L87 83M61 143L61 159L139 159L139 143L61 143z"/>
</svg>
