<?xml version="1.0" standalone="yes"?>
<svg xmlns="http://www.w3.org/2000/svg" viewBox="0 0 200 300">
<path style="fill:#24303b; stroke:none;" d="M72 94L72 115C72.0011 117.434 71.379 121.209 73.0278 123.258C74.6176 125.233 77.7535 124.946 80 125L80 133C77.7884 133.026 74.5852 132.627 73.0278 134.603C71.5347 136.498 72.0046 139.759 72 142L72 159C72.0046 161.236 71.532 164.508 73.0278 166.397C75.842 169.95 86.866 168 91 168L91 209L31 209L16 209.001C14.008 209.014 11.2815 208.699 9.6034 210.028C6.05018 212.842 8 223.866 8 228L192 228C192 223.866 193.95 212.842 190.397 210.028C188.719 208.699 185.992 209.014 184 209.001L169 209L109 209L109 168C113.134 168 124.158 169.95 126.972 166.397C128.468 164.508 127.995 161.236 128 159L128 142C127.995 139.759 128.465 136.498 126.972 134.603C125.415 132.627 122.212 133.026 120 133L120 125C122.397 124.972 125.418 125.284 127.258 123.397C129.318 121.283 128.985 117.702 128.999 115L129 94L145 93.9992C146.992 93.9855 149.719 94.3013 151.397 92.9722C153.361 91.4167 152.984 88.2091 152.999 86C153.036 80.6684 153.036 75.3316 152.999 70C152.984 67.7909 153.361 64.5833 151.397 63.0278C149.508 61.532 146.236 62.0046 144 62L125 62L71 62C65.206 62 54.654 59.9539 49.4336 62.6034C47.081 63.7974 47.0878 66.7116 47.0154 69.0008C46.837 74.6476 46.9249 80.3508 47.0039 86C47.0351 88.2367 46.7901 91.3927 48.7423 92.9722C50.5891 94.4665 53.8013 93.9955 56 94L72 94z"/>
<path style="fill:#B78961; stroke:none;" d="M53 67L53 89L147 89L147 67L53 67M78 94L78 119L123 119L123 94L78 94M86 125L86 133L115 133L115 125L86 125M77 139L77 162L80 162C80 159.01 78.2661 146.485 83 146.485C87.7339 146.485 86 159.01 86 162L97 162C97 159.01 95.2661 146.485 100 146.485C104.734 146.485 103 159.01 103 162L115 162C115 159.13 113.391 147.467 117.17 146.631C119.034 146.219 119.64 148.731 119.852 150.024C120.481 153.866 120 158.111 120 162L123 162L123 139L77 139z"/>
<path style="fill:#24303b; stroke:none;" d="M58.5756 155.086C55.3427 157.534 59.6629 163.639 61 166C66.6637 176.001 72.2696 186.035 78 196C79.2112 198.106 82.7719 206.641 86.4213 203.914C89.7194 201.449 85.1862 195.35 83.8495 193L66.8495 163C65.6819 160.956 62.1216 152.402 58.5756 155.086M141.37 155.086C138.01 156.952 135.978 162.798 134.15 166C129.019 174.989 123.678 183.887 118.77 193C117.929 194.562 112.221 204.997 118.044 204.079C121.795 203.487 124.214 196.867 125.85 194C132.023 183.18 140.632 171.691 144.907 160.005C145.832 157.475 145.04 153.049 141.37 155.086z"/>
<path style="fill:#B78961; stroke:none;" d="M97 169L97 173L103 170C100.948 169.126 99.2528 169.047 97 169z"/>
<path style="fill:#24303b; stroke:none;" d="M48 175C48.7444 184.875 60.5653 192.202 66.9105 199C70.7392 203.102 73.1275 206.557 79 207C78.5941 201.615 75.7094 198.736 71.9992 195C65.3796 188.334 58.0128 175.755 48 175M154 175C144.398 176.482 135.52 189.284 129.015 196C127.418 197.649 121.167 203.386 124.647 205.914C127.992 208.342 133.061 201.925 135 199.999C141.888 193.159 153.663 185.389 154 175z"/>
<path style="fill:#B78961; stroke:none;" d="M102 177C98.8213 179.799 97.3236 181.731 97 186C101.23 184.306 103.875 181.636 102 177M102 190C98.259 193.535 97.0609 195.858 97 201C101.234 198.263 104.134 195.143 102 190M97 208C99.0521 208.874 100.747 208.953 103 209L103 205C100.778 205.81 99.0098 206.739 97 208M13 215L13 223L187 223L187 215L13 215z"/>
</svg>

