<?xml version="1.0" encoding="UTF-8"?>
<svg id="Layer_1" data-name="Layer 1" xmlns="http://www.w3.org/2000/svg" viewBox="0 0 1038.41 245">
  <defs>
    <style>
      .cls-5 {
        fill: #24303b;
      }
    </style>
  </defs>
  <path class="cls-5" d="M183.18,180.09c-1.19-1.26-1.78-3.15-1.78-5.67V46.95c0-2.66.59-4.62,1.78-5.88,1.19-1.26,3.18-1.89,5.99-1.89h11.13c2.8,0,4.83.63,6.09,1.89,1.26,1.26,1.89,3.22,1.89,5.88v114.66h64.26c2.8,0,4.76.6,5.88,1.79,1.12,1.19,1.68,3.12,1.68,5.78v5.67c0,2.52-.56,4.34-1.68,5.46-1.12,1.12-3.08,1.68-5.88,1.68h-83.37c-2.8,0-4.8-.63-5.99-1.89Z"/>
  <path class="cls-5" d="M482.52,180.09c-1.19-1.26-1.78-3.15-1.78-5.67V46.95c0-2.66.59-4.62,1.78-5.88,1.19-1.26,3.18-1.89,5.99-1.89h60.69c14.56,0,25.58,3.5,33.07,10.5,7.49,7,11.24,16.45,11.24,28.35,0,6.72-1.68,12.74-5.04,18.06-3.36,5.32-8.05,9.24-14.07,11.76,15.54,4.9,23.31,15.82,23.31,32.76,0,7.84-1.78,14.88-5.35,21.11-3.57,6.23-8.92,11.17-16.06,14.8-7.14,3.64-15.96,5.46-26.46,5.46h-61.32c-2.8,0-4.8-.63-5.99-1.89ZM545.41,98.82c6.86,0,12.14-1.75,15.85-5.25,3.71-3.5,5.57-8.4,5.57-14.7,0-6.86-1.72-11.79-5.15-14.8-3.43-3.01-8.93-4.51-16.49-4.51h-37.59v39.27h37.8ZM548.57,161.61c7.7,0,13.37-2,17.01-5.99,3.64-3.99,5.46-9.13,5.46-15.43,0-7.28-2.21-12.77-6.61-16.49-4.41-3.71-10.54-5.56-18.38-5.56h-38.43v43.47h40.95Z"/>
  <path class="cls-5" d="M778.33,178.83c0-.84.21-1.75.63-2.73l55.44-131.46c.84-2.1,1.75-3.53,2.73-4.3.98-.77,2.38-1.16,4.2-1.16h11.55c1.96,0,3.39.39,4.3,1.16.91.77,1.79,2.2,2.62,4.3l55.44,131.46c.42.98.63,1.89.63,2.73,0,2.1-1.19,3.15-3.57,3.15h-18.27c-1.82,0-3.12-.24-3.88-.74-.77-.49-1.51-1.5-2.21-3.04l-11.97-29.4h-57.96l-11.76,29.4c-.7,1.54-1.44,2.56-2.21,3.04-.77.49-2.07.74-3.89.74h-18.27c-2.38,0-3.57-1.05-3.57-3.15ZM869.26,129.27l-22.26-55.02-22.26,55.02h44.52Z"/>
  <path class="cls-5" d="M103.75,0l-15,15v230h230l15-15V0H103.75ZM318.75,15v200H118.75V15h200Z"/>
  <path class="cls-5" d="M417.44,0l-15,15v230h230l15-15V0h-230ZM632.44,15v200h-200V15h200Z"/>
  <path class="cls-5" d="M731.14,1.83l-15,15v230h230l15-15V1.83h-230ZM946.14,16.83v200h-200V16.83h200Z"/>
  <rect class="cls-5" x="333.75" y="104.64" width="68.69" height="30"/>
  <rect class="cls-5" x="647.44" y="104.64" width="68.69" height="30"/>
  <rect class="cls-5" x="19.75" y="104.64" width="69" height="30" transform="translate(108.5 239.28) rotate(180)"/>
  <rect class="cls-5" x="960.81" y="104.64" width="69" height="30"/>
</svg>
