<?xml version="1.0" encoding="UTF-8"?>
<svg version="1.1" xmlns="http://www.w3.org/2000/svg" width="625" height="292">
<path d="M0 0 C1.13243637 -0.00102219 2.26487274 -0.00204437 3.43162537 -0.00309753 C7.16054415 0.00176457 10.88698952 0.05614783 14.61547852 0.11108398 C17.20620893 0.12414489 19.79695667 0.13410673 22.38771057 0.14109802 C28.50073894 0.1650591 34.61275234 0.22017807 40.72539908 0.29054445 C48.37153186 0.37664212 56.01780969 0.41481857 63.66430664 0.45288086 C77.29585234 0.52094575 90.92547433 0.66118188 104.55688477 0.79467773 C104.55688477 19.27467773 104.55688477 37.75467773 104.55688477 56.79467773 C115.77688477 56.79467773 126.99688477 56.79467773 138.55688477 56.79467773 C138.47567383 53.33870117 138.39446289 49.88272461 138.31079102 46.32202148 C138.25614921 42.96277358 138.21367458 39.60357579 138.17236328 36.24414062 C138.13722991 33.91513799 138.08951162 31.58628899 138.02880859 29.2578125 C137.94358033 25.90382959 137.90412401 22.55189222 137.87329102 19.19702148 C137.83716202 18.1613353 137.80103302 17.12564911 137.7638092 16.05857849 C137.76328049 15.07809036 137.76275177 14.09760223 137.76220703 13.08740234 C137.74666275 12.23246689 137.73111847 11.37753143 137.71510315 10.49668884 C139.09914517 6.05409134 141.65145044 3.28770937 145.55688477 0.79467773 C149.3890035 -0.16498794 153.06656702 -0.09343151 157 0 C158.13243637 -0.00102219 159.26487274 -0.00204437 160.43162537 -0.00309753 C164.16054415 0.00176457 167.88698952 0.05614783 171.61547852 0.11108398 C174.20620893 0.12414489 176.79695667 0.13410673 179.38771057 0.14109802 C185.50073894 0.1650591 191.61275234 0.22017807 197.72539908 0.29054445 C205.37153186 0.37664212 213.01780969 0.41481857 220.66430664 0.45288086 C234.29585234 0.52094575 247.92547433 0.66118188 261.55688477 0.79467773 C261.55688477 19.27467773 261.55688477 37.75467773 261.55688477 56.79467773 C272.77688477 56.79467773 283.99688477 56.79467773 295.55688477 56.79467773 C295.47567383 53.33870117 295.39446289 49.88272461 295.31079102 46.32202148 C295.25614921 42.96277358 295.21367458 39.60357579 295.17236328 36.24414062 C295.13722991 33.91513799 295.08951162 31.58628899 295.02880859 29.2578125 C294.94358033 25.90382959 294.90412401 22.55189222 294.87329102 19.19702148 C294.83716202 18.1613353 294.80103302 17.12564911 294.7638092 16.05857849 C294.76328049 15.07809036 294.76275177 14.09760223 294.76220703 13.08740234 C294.74666275 12.23246689 294.73111847 11.37753143 294.71510315 10.49668884 C296.09914517 6.05409134 298.65145044 3.28770937 302.55688477 0.79467773 C306.3890035 -0.16498794 310.06656702 -0.09343151 314 0 C315.13243637 -0.00102219 316.26487274 -0.00204437 317.43162537 -0.00309753 C321.16054415 0.00176457 324.88698952 0.05614783 328.61547852 0.11108398 C331.20620893 0.12414489 333.79695667 0.13410673 336.38771057 0.14109802 C342.50073894 0.1650591 348.61275234 0.22017807 354.72539908 0.29054445 C361.68781898 0.36894331 368.65028231 0.40731304 375.61303413 0.4424125 C389.9281237 0.51546742 404.24247284 0.6384932 418.55688477 0.79467773 C418.74405387 15.65037076 418.88497964 30.50597217 418.97138214 45.3625946 C419.01257344 52.26141862 419.06869435 59.1595086 419.16040039 66.05786133 C419.24888281 72.71691966 419.29517672 79.37505852 419.31590271 86.034729 C419.33066988 88.57371005 419.35950766 91.11264999 419.40272522 93.65130615 C419.46091939 97.21172749 419.46879264 100.76901259 419.46508789 104.32983398 C419.5082312 105.89969307 419.5082312 105.89969307 419.55224609 107.50126648 C419.49158627 112.89924115 418.79743217 116.30030585 415.2166748 120.45446777 C410.16714272 124.80700615 405.5385413 124.8800454 399.09204102 124.70288086 C397.96921219 124.70404907 396.84638336 124.70521729 395.68952942 124.7064209 C391.99819909 124.70087128 388.31014676 124.6387585 384.61938477 124.57592773 C382.05250818 124.56099831 379.48560874 124.54961461 376.91870117 124.54162598 C370.86576344 124.5142589 364.81416758 124.45129053 358.76173401 124.37083006 C351.18976917 124.27237046 343.61761193 124.2287889 336.04516602 124.18530273 C322.54816548 124.10755301 309.05370706 123.94728 295.55688477 123.79467773 C295.55688477 104.98467773 295.55688477 86.17467773 295.55688477 66.79467773 C284.33688477 66.79467773 273.11688477 66.79467773 261.55688477 66.79467773 C261.6380957 70.3228418 261.71930664 73.85100586 261.80297852 77.48608398 C261.85761759 80.91483152 261.90009383 84.34352999 261.94140625 87.77246094 C261.97654332 90.1499615 262.02426429 92.52731151 262.08496094 94.90429688 C262.17017185 98.32777074 262.20964214 101.74924081 262.24047852 105.17358398 C262.27660751 106.23114395 262.31273651 107.28870392 262.34996033 108.37831116 C262.35048904 109.37882004 262.35101776 110.37932892 262.3515625 111.41015625 C262.36710678 112.2828566 262.38265106 113.15555695 262.39866638 114.05470276 C261.0253362 118.52485305 258.48524152 121.29268986 254.55688477 123.79467773 C250.724607 124.75383263 247.04725418 124.68278821 243.11376953 124.58935547 C241.98133316 124.59037766 240.84889679 124.59139984 239.68214417 124.592453 C235.95322538 124.5875909 232.22678001 124.53320764 228.49829102 124.47827148 C225.9075606 124.46521058 223.31681286 124.45524874 220.72605896 124.44825745 C214.61303059 124.42429637 208.50101719 124.3691774 202.38837045 124.29881102 C194.74223767 124.21271335 187.09595984 124.1745369 179.44946289 124.13647461 C165.81791719 124.06840972 152.1882952 123.92817359 138.55688477 123.79467773 C138.55688477 104.98467773 138.55688477 86.17467773 138.55688477 66.79467773 C127.33688477 66.79467773 116.11688477 66.79467773 104.55688477 66.79467773 C104.6380957 70.3228418 104.71930664 73.85100586 104.80297852 77.48608398 C104.85761759 80.91483152 104.90009383 84.34352999 104.94140625 87.77246094 C104.97654332 90.1499615 105.02426429 92.52731151 105.08496094 94.90429688 C105.17017185 98.32777074 105.20964214 101.74924081 105.24047852 105.17358398 C105.27660751 106.23114395 105.31273651 107.28870392 105.34996033 108.37831116 C105.35048904 109.37882004 105.35101776 110.37932892 105.3515625 111.41015625 C105.37487892 112.71920677 105.37487892 112.71920677 105.39866638 114.05470276 C104.0253362 118.52485305 101.48524152 121.29268986 97.55688477 123.79467773 C93.724607 124.75383263 90.04725418 124.68278821 86.11376953 124.58935547 C84.98133316 124.59037766 83.84889679 124.59139984 82.68214417 124.592453 C78.95322538 124.5875909 75.22678001 124.53320764 71.49829102 124.47827148 C68.9075606 124.46521058 66.31681286 124.45524874 63.72605896 124.44825745 C57.61303059 124.42429637 51.50101719 124.3691774 45.38837045 124.29881102 C38.42595055 124.22041216 31.46348723 124.18204243 24.5007354 124.14694297 C10.18564583 124.07388805 -4.12870331 123.95086227 -18.44311523 123.79467773 C-18.60681748 108.79126236 -18.73016418 93.78791633 -18.80580044 78.78379726 C-18.84185739 71.81666096 -18.89099259 64.85008034 -18.97119141 57.88330078 C-19.04855685 51.15943327 -19.08910996 44.43626214 -19.10725594 37.71193123 C-19.12018661 35.14703346 -19.14543764 32.58216717 -19.18322563 30.01751518 C-19.23407157 26.42358116 -19.24103728 22.832029 -19.23779297 19.23779297 C-19.2629599 18.17827423 -19.28812683 17.11875549 -19.3140564 16.02713013 C-19.26529859 11.03278481 -18.89236698 7.53345622 -15.60864258 3.62915039 C-10.85510395 -0.368823 -5.97039756 -0.14181588 0 0 Z " fill="#070707" transform="translate(60.443115234375,70.205322265625)"/>
<path d="M0 0 C33 0 66 0 100 0 C100 32.67 100 65.34 100 99 C67 99 34 99 0 99 C0 66.33 0 33.66 0 0 Z " fill="#FCFCFC" transform="translate(371,79)"/>
<path d="M0 0 C32.67 0 65.34 0 99 0 C99 32.67 99 65.34 99 99 C66.33 99 33.66 99 0 99 C0 66.33 0 33.66 0 0 Z " fill="#FDFDFD" transform="translate(215,79)"/>
<path d="M0 0 C32.67 0 65.34 0 99 0 C99 32.67 99 65.34 99 99 C66.33 99 33.66 99 0 99 C0 66.33 0 33.66 0 0 Z " fill="#FDFDFD" transform="translate(58,79)"/>
<path d="M0 0 C10.395 -0.1546875 10.395 -0.1546875 21 -0.3125 C23.17207031 -0.35802002 25.34414063 -0.40354004 27.58203125 -0.45043945 C29.32550518 -0.46505796 31.06899632 -0.4777954 32.8125 -0.48828125 C33.70001953 -0.51386108 34.58753906 -0.53944092 35.50195312 -0.5657959 C41.9164476 -0.57024053 45.9951332 0.97151281 51 5 C54.26667573 8.40959279 56.27307299 12.24779519 56.5625 17 C56.2550991 21.45292161 54.5940862 25.38909606 52 29 C49.859375 30.73046875 49.859375 30.73046875 48 32 C48.54269531 32.35191406 49.08539063 32.70382813 49.64453125 33.06640625 C54.57765246 36.47070431 57.42385608 38.99095132 59 45 C59.88530375 51.01458943 59.67493971 55.68315266 56.4375 60.9375 C52.75492321 65.81560528 48.79065153 68.06978282 43 70 C41.57281363 70.08610514 40.14193352 70.11771828 38.7121582 70.11352539 C37.83950317 70.11340454 36.96684814 70.11328369 36.06774902 70.11315918 C34.69809998 70.10548523 34.69809998 70.10548523 33.30078125 70.09765625 C32.45849976 70.09664917 31.61621826 70.09564209 30.74841309 70.09460449 C27.60309487 70.08937384 24.45779606 70.07541257 21.3125 70.0625 C14.279375 70.041875 7.24625 70.02125 0 70 C0 46.9 0 23.8 0 0 Z " fill="#030303" transform="translate(239,92)"/>
<path d="M0 0 C5.28 0 10.56 0 16 0 C19.78122707 8.14503812 23.22193684 16.37519861 26.51953125 24.7265625 C27.02785891 26.00889564 27.53638212 27.29115128 28.04508972 28.57333374 C29.09974323 31.23326626 30.15253474 33.89392507 31.20385742 36.55517578 C32.55364769 39.97169746 33.90748001 43.38660025 35.26257801 46.80101967 C36.30789055 49.43578136 37.35148406 52.07122108 38.39450645 54.70689011 C38.89365605 55.96781503 39.39325907 57.22856055 39.89332008 58.4891243 C40.58658514 60.23768225 41.27736754 61.98722392 41.96801758 63.73681641 C42.36152908 64.73178131 42.75504059 65.72674622 43.16047668 66.75186157 C44 69 44 69 44 70 C38.72 70 33.44 70 28 70 C26.02 65.05 24.04 60.1 22 55 C8.14 54.505 8.14 54.505 -6 54 C-6.99 57.3 -7.98 60.6 -9 64 C-9.66 65.98 -10.32 67.96 -11 70 C-16.28 70 -21.56 70 -27 70 C-24.8702902 63.43558071 -22.50885151 57.00630609 -19.98046875 50.5859375 C-19.59941483 49.61322906 -19.2183609 48.64052063 -18.82575989 47.63833618 C-17.61513188 44.54971894 -16.40131007 41.46236788 -15.1875 38.375 C-14.38456838 36.32690023 -13.5818324 34.27872375 -12.77929688 32.23046875 C-8.5602422 21.47043301 -4.30793999 10.72475883 0 0 Z " fill="#010101" transform="translate(413,92)"/>
<path d="M0 0 C4.62 0 9.24 0 14 0 C14 19.47 14 38.94 14 59 C25.88 59 37.76 59 50 59 C50 62.96 50 66.92 50 71 C33.5 71 17 71 0 71 C0 47.57 0 24.14 0 0 Z " fill="#010101" transform="translate(83,91)"/>
<path d="M0 0 C3.20824247 1.49717982 5.72932114 3.27518536 8 6 C9.83643179 11.50929538 9.6726093 16.15926469 7.25 21.375 C5.67756642 24.50738753 4.30542406 25.78503332 1 27 C-3.84496025 27.67750664 -7.76404182 27.74672474 -12 25.1875 C-16.30571767 20.4781213 -16.53593705 17.21480638 -16.4609375 11.02734375 C-15.76298948 6.44336312 -13.55628505 3.84687067 -10 1 C-6.80912749 -0.59543625 -3.47229758 -0.38061724 0 0 Z " fill="#F6F6F6" transform="translate(443,222)"/>
<path d="M0 0 C3.20824247 1.49717982 5.72932114 3.27518536 8 6 C9.83643179 11.50929538 9.6726093 16.15926469 7.25 21.375 C5.67756642 24.50738753 4.30542406 25.78503332 1 27 C-3.84496025 27.67750664 -7.76404182 27.74672474 -12 25.1875 C-16.30571767 20.4781213 -16.53593705 17.21480638 -16.4609375 11.02734375 C-15.76298948 6.44336312 -13.55628505 3.84687067 -10 1 C-6.80912749 -0.59543625 -3.47229758 -0.38061724 0 0 Z " fill="#F6F6F6" transform="translate(327,222)"/>
<path d="M0 0 C3.72960366 -0.08101311 7.45744359 -0.14051069 11.1875 -0.1875 C12.24259766 -0.21263672 13.29769531 -0.23777344 14.38476562 -0.26367188 C15.91713867 -0.27817383 15.91713867 -0.27817383 17.48046875 -0.29296875 C18.41785889 -0.3086792 19.35524902 -0.32438965 20.32104492 -0.34057617 C23.53256353 0.06770492 25.39378631 1.11169302 28 3 C29.55024464 6.10048928 29.28992015 8.57894218 29 12 C26.20858203 16.58590095 26.20858203 16.58590095 23.17089844 17.62670898 C20.74375772 18.04406145 18.47855232 18.1126741 16.015625 18.09765625 C15.08105469 18.09443359 14.14648438 18.09121094 13.18359375 18.08789062 C11.73146484 18.07532227 11.73146484 18.07532227 10.25 18.0625 C9.26644531 18.05798828 8.28289062 18.05347656 7.26953125 18.04882812 C4.84632806 18.037065 2.42315623 18.01913018 0 18 C0 12.06 0 6.12 0 0 Z " fill="#FBFBFB" transform="translate(254,132)"/>
<path d="M0 0 C3.58378549 -0.08090486 7.16574647 -0.14045667 10.75 -0.1875 C11.76578125 -0.21263672 12.7815625 -0.23777344 13.828125 -0.26367188 C14.8078125 -0.27333984 15.7875 -0.28300781 16.796875 -0.29296875 C17.69760742 -0.3086792 18.59833984 -0.32438965 19.52636719 -0.34057617 C22.49275908 0.06784435 23.84055777 0.95893404 26 3 C26.56640625 5.15625 26.56640625 5.15625 26.5625 7.5 C26.58441406 8.2734375 26.60632813 9.046875 26.62890625 9.84375 C26 12 26 12 24.140625 13.76953125 C19.49375192 15.59013451 15.12704031 15.31687681 10.1875 15.1875 C8.71893555 15.16719727 8.71893555 15.16719727 7.22070312 15.14648438 C4.81356459 15.11125796 2.40671057 15.05745463 0 15 C0 10.05 0 5.1 0 0 Z " fill="#FDFDFD" transform="translate(254,104)"/>
<path d="M0 0 C10 0 10 0 14 3 C14.31900332 6.12623255 14.41441874 8.17116253 13 11 C12.34 11 11.68 11 11 11 C11 11.66 11 12.32 11 13 C11.639375 13.309375 12.27875 13.61875 12.9375 13.9375 C15 15 15 15 16 16 C15.76749193 23.20775027 15.76749193 23.20775027 13.0625 26 C10 27 10 27 0 27 C0 18.09 0 9.18 0 0 Z " fill="#0F0F0F" transform="translate(135,222)"/>
<path d="M0 0 C2.34643555 0.17016602 2.34643555 0.17016602 5 1 C6.39379883 3.28491211 6.39379883 3.28491211 7.45703125 6.27734375 C8.04194336 7.88319336 8.04194336 7.88319336 8.63867188 9.52148438 C9.2197168 11.21241211 9.2197168 11.21241211 9.8125 12.9375 C10.21919922 14.06091797 10.62589844 15.18433594 11.04492188 16.34179688 C14 24.60111607 14 24.60111607 14 27 C12.68 27 11.36 27 10 27 C9.34 25.02 8.68 23.04 8 21 C4.04 20.67 0.08 20.34 -4 20 C-4.66 22.31 -5.32 24.62 -6 27 C-6.99 27 -7.98 27 -9 27 C-7.71011592 20.49194848 -5.8622531 14.57980187 -3.375 8.4375 C-3.05015625 7.61958984 -2.7253125 6.80167969 -2.390625 5.95898438 C-1.59978204 3.97024694 -0.80075781 1.98476601 0 0 Z " fill="#111111" transform="translate(382,222)"/>
<path d="M0 0 C2.34643555 0.17016602 2.34643555 0.17016602 5 1 C6.39379883 3.28491211 6.39379883 3.28491211 7.45703125 6.27734375 C8.04194336 7.88319336 8.04194336 7.88319336 8.63867188 9.52148438 C9.2197168 11.21241211 9.2197168 11.21241211 9.8125 12.9375 C10.21919922 14.06091797 10.62589844 15.18433594 11.04492188 16.34179688 C14 24.60111607 14 24.60111607 14 27 C12.68 27 11.36 27 10 27 C9.34 25.02 8.68 23.04 8 21 C4.04 20.67 0.08 20.34 -4 20 C-4.66 22.31 -5.32 24.62 -6 27 C-6.99 27 -7.98 27 -9 27 C-7.71011592 20.49194848 -5.8622531 14.57980187 -3.375 8.4375 C-3.05015625 7.61958984 -2.7253125 6.80167969 -2.390625 5.95898438 C-1.59978204 3.97024694 -0.80075781 1.98476601 0 0 Z " fill="#111111" transform="translate(249,222)"/>
<path d="M0 0 C2.34643555 0.17016602 2.34643555 0.17016602 5 1 C6.39379883 3.28491211 6.39379883 3.28491211 7.45703125 6.27734375 C8.04194336 7.88319336 8.04194336 7.88319336 8.63867188 9.52148438 C9.2197168 11.21241211 9.2197168 11.21241211 9.8125 12.9375 C10.21919922 14.06091797 10.62589844 15.18433594 11.04492188 16.34179688 C14 24.60111607 14 24.60111607 14 27 C12.68 27 11.36 27 10 27 C9.34 25.02 8.68 23.04 8 21 C4.04 20.67 0.08 20.34 -4 20 C-4.66 22.31 -5.32 24.62 -6 27 C-6.99 27 -7.98 27 -9 27 C-7.71011592 20.49194848 -5.8622531 14.57980187 -3.375 8.4375 C-3.05015625 7.61958984 -2.7253125 6.80167969 -2.390625 5.95898438 C-1.59978204 3.97024694 -0.80075781 1.98476601 0 0 Z " fill="#111111" transform="translate(163,222)"/>
<path d="M0 0 C1.32 0 2.64 0 4 0 C5.31456549 2.76987033 6.6267287 5.54083487 7.9375 8.3125 C8.31068359 9.09818359 8.68386719 9.88386719 9.06835938 10.69335938 C9.42607422 11.45068359 9.78378906 12.20800781 10.15234375 12.98828125 C10.6472229 14.03302612 10.6472229 14.03302612 11.15209961 15.09887695 C12 17 12 17 13 20 C15.97 13.4 18.94 6.8 22 0 C23.32 0 24.64 0 26 0 C26 8.58 26 17.16 26 26 C25.01 26 24.02 26 23 26 C22.67 20.39 22.34 14.78 22 9 C19.36 14.61 16.72 20.22 14 26 C13.34 26 12.68 26 12 26 C9.03 19.4 6.06 12.8 3 6 C2.67 12.6 2.34 19.2 2 26 C1.34 26 0.68 26 0 26 C0 17.42 0 8.84 0 0 Z " fill="#090909" transform="translate(342,223)"/>
<path d="M0 0 C1.32 0 2.64 0 4 0 C4 3.96 4 7.92 4 12 C8.29 12 12.58 12 17 12 C17 8.04 17 4.08 17 0 C18.32 0 19.64 0 21 0 C21 8.91 21 17.82 21 27 C19.68 27 18.36 27 17 27 C17 23.04 17 19.08 17 15 C12.71 15 8.42 15 4 15 C4 18.96 4 22.92 4 27 C2.68 27 1.36 27 0 27 C0 18.09 0 9.18 0 0 Z " fill="#303030" transform="translate(204,222)"/>
<path d="M0 0 C0.66 0 1.32 0 2 0 C3.34146494 3.43438215 4.67175905 6.87298417 6 10.3125 C6.3815625 11.28896484 6.763125 12.26542969 7.15625 13.27148438 C7.5171875 14.20927734 7.878125 15.14707031 8.25 16.11328125 C8.58515625 16.97735596 8.9203125 17.84143066 9.265625 18.73168945 C10 21 10 21 10 24 C4.06 24 -1.88 24 -8 24 C-5.90481079 15.72951627 -3.1829131 7.91325036 0 0 Z " fill="#EFEFEF" transform="translate(420,110)"/>
<path d="M0 0 C3.20824247 1.49717982 5.72932114 3.27518536 8 6 C9.83643179 11.50929538 9.6726093 16.15926469 7.25 21.375 C5.67756642 24.50738753 4.30542406 25.78503332 1 27 C-3.84496025 27.67750664 -7.76404182 27.74672474 -12 25.1875 C-16.30571767 20.4781213 -16.53593705 17.21480638 -16.4609375 11.02734375 C-15.76298948 6.44336312 -13.55628505 3.84687067 -10 1 C-6.80912749 -0.59543625 -3.47229758 -0.38061724 0 0 Z M-12 7 C-12.9442592 8.77084833 -12.9442592 8.77084833 -13 11 C-13.12375 12.299375 -13.2475 13.59875 -13.375 14.9375 C-13.35487879 18.53248885 -13.04297586 18.94820858 -10.5625 21.9375 C-9.716875 22.618125 -8.87125 23.29875 -8 24 C-7.67 24.33 -7.34 24.66 -7 25 C-3.13643279 25.25757115 -0.15152348 25.39081092 3 23 C5.8574371 18.61179302 6.64942272 15.19538178 6 10 C3.7412063 5.75971381 3.7412063 5.75971381 0 3 C-5.4538269 2.48548803 -8.18640667 2.96207765 -12 7 Z " fill="#141414" transform="translate(443,222)"/>
<path d="M0 0 C3.20824247 1.49717982 5.72932114 3.27518536 8 6 C9.83643179 11.50929538 9.6726093 16.15926469 7.25 21.375 C5.67756642 24.50738753 4.30542406 25.78503332 1 27 C-3.84496025 27.67750664 -7.76404182 27.74672474 -12 25.1875 C-16.30571767 20.4781213 -16.53593705 17.21480638 -16.4609375 11.02734375 C-15.76298948 6.44336312 -13.55628505 3.84687067 -10 1 C-6.80912749 -0.59543625 -3.47229758 -0.38061724 0 0 Z M-12 7 C-12.9442592 8.77084833 -12.9442592 8.77084833 -13 11 C-13.12375 12.299375 -13.2475 13.59875 -13.375 14.9375 C-13.35487879 18.53248885 -13.04297586 18.94820858 -10.5625 21.9375 C-9.716875 22.618125 -8.87125 23.29875 -8 24 C-7.67 24.33 -7.34 24.66 -7 25 C-3.13643279 25.25757115 -0.15152348 25.39081092 3 23 C5.8574371 18.61179302 6.64942272 15.19538178 6 10 C3.7412063 5.75971381 3.7412063 5.75971381 0 3 C-5.4538269 2.48548803 -8.18640667 2.96207765 -12 7 Z " fill="#141414" transform="translate(327,222)"/>
<path d="M0 0 C5 1 5 1 6.66918945 2.85766602 C7.14573975 3.64842529 7.62229004 4.43918457 8.11328125 5.25390625 C8.9012207 6.53491211 8.9012207 6.53491211 9.70507812 7.84179688 C10.23552734 8.73962891 10.76597656 9.63746094 11.3125 10.5625 C12.13717773 11.91504883 12.13717773 11.91504883 12.97851562 13.29492188 C14.33322655 15.52135984 15.66850283 17.75960205 17 20 C17.33 13.4 17.66 6.8 18 0 C18.99 0 19.98 0 21 0 C21 8.58 21 17.16 21 26 C16 25 16 25 14.4543457 23.37353516 C14.03241943 22.68565918 13.61049316 21.9977832 13.17578125 21.2890625 C12.70462891 20.53882813 12.23347656 19.78859375 11.74804688 19.015625 C11.27431641 18.22671875 10.80058594 17.4378125 10.3125 16.625 C9.82716797 15.84382812 9.34183594 15.06265625 8.84179688 14.2578125 C7.93983877 12.8047269 7.04433599 11.34760002 6.1574707 9.88525391 C5.14298606 8.23289145 4.07552932 6.61329398 3 5 C2.67 11.93 2.34 18.86 2 26 C1.34 26 0.68 26 0 26 C0 17.42 0 8.84 0 0 Z " fill="#050505" transform="translate(458,223)"/>
<path d="M0 0 C5 1 5 1 6.66918945 2.85766602 C7.14573975 3.64842529 7.62229004 4.43918457 8.11328125 5.25390625 C8.9012207 6.53491211 8.9012207 6.53491211 9.70507812 7.84179688 C10.23552734 8.73962891 10.76597656 9.63746094 11.3125 10.5625 C12.13717773 11.91504883 12.13717773 11.91504883 12.97851562 13.29492188 C14.33322655 15.52135984 15.66850283 17.75960205 17 20 C17.33 13.4 17.66 6.8 18 0 C18.99 0 19.98 0 21 0 C21 8.58 21 17.16 21 26 C16 25 16 25 14.4543457 23.37353516 C14.03241943 22.68565918 13.61049316 21.9977832 13.17578125 21.2890625 C12.70462891 20.53882813 12.23347656 19.78859375 11.74804688 19.015625 C11.27431641 18.22671875 10.80058594 17.4378125 10.3125 16.625 C9.82716797 15.84382812 9.34183594 15.06265625 8.84179688 14.2578125 C7.93983877 12.8047269 7.04433599 11.34760002 6.1574707 9.88525391 C5.14298606 8.23289145 4.07552932 6.61329398 3 5 C2.67 11.93 2.34 18.86 2 26 C1.34 26 0.68 26 0 26 C0 17.42 0 8.84 0 0 Z " fill="#050505" transform="translate(106,223)"/>
<path d="M0 0 C0.99 0 1.98 0 3 0 C3.01458252 0.58491211 3.02916504 1.16982422 3.04418945 1.77246094 C3.1188357 4.43229397 3.21543899 7.09089448 3.3125 9.75 C3.33505859 10.67039063 3.35761719 11.59078125 3.38085938 12.5390625 C3.41630859 13.42851562 3.45175781 14.31796875 3.48828125 15.234375 C3.51446533 16.05131836 3.54064941 16.86826172 3.56762695 17.70996094 C4.09877767 20.52317027 5.0292494 21.94118902 7 24 C10 24.58333333 10 24.58333333 13 24 C15.15416157 22.39224131 15.90445614 21.48095625 16.43237305 18.82348633 C16.45855713 18.00130615 16.48474121 17.17912598 16.51171875 16.33203125 C16.54716797 15.43935547 16.58261719 14.54667969 16.61914062 13.62695312 C16.64169922 12.69818359 16.66425781 11.76941406 16.6875 10.8125 C16.72166016 9.87212891 16.75582031 8.93175781 16.79101562 7.96289062 C16.87348218 5.64204607 16.94263403 3.32157852 17 1 C17.99 1 18.98 1 20 1 C20.08132642 4.04221065 20.14065374 7.0822238 20.1875 10.125 C20.21263672 10.9809375 20.23777344 11.836875 20.26367188 12.71875 C20.32355622 17.90872628 19.95205194 21.52546123 17 26 C13.30846481 27.8457676 9.02978061 27.48175083 5 27 C1.90200019 24.80873184 1.19647888 23.58943664 0 20 C-0.08106686 18.44578271 -0.10756898 16.88832973 -0.09765625 15.33203125 C-0.09443359 14.43935547 -0.09121094 13.54667969 -0.08789062 12.62695312 C-0.07951172 11.69818359 -0.07113281 10.76941406 -0.0625 9.8125 C-0.05798828 8.87212891 -0.05347656 7.93175781 -0.04882812 6.96289062 C-0.03704626 4.64186288 -0.02059558 2.32096356 0 0 Z " fill="#101010" transform="translate(266,222)"/>
<path d="M0 0 C0.99 0 1.98 0 3 0 C3.01458252 0.58491211 3.02916504 1.16982422 3.04418945 1.77246094 C3.1188357 4.43229397 3.21543899 7.09089448 3.3125 9.75 C3.33505859 10.67039063 3.35761719 11.59078125 3.38085938 12.5390625 C3.41630859 13.42851562 3.45175781 14.31796875 3.48828125 15.234375 C3.51446533 16.05131836 3.54064941 16.86826172 3.56762695 17.70996094 C4.09877767 20.52317027 5.0292494 21.94118902 7 24 C10 24.58333333 10 24.58333333 13 24 C15.15416157 22.39224131 15.90445614 21.48095625 16.43237305 18.82348633 C16.45855713 18.00130615 16.48474121 17.17912598 16.51171875 16.33203125 C16.54716797 15.43935547 16.58261719 14.54667969 16.61914062 13.62695312 C16.64169922 12.69818359 16.66425781 11.76941406 16.6875 10.8125 C16.72166016 9.87212891 16.75582031 8.93175781 16.79101562 7.96289062 C16.87348218 5.64204607 16.94263403 3.32157852 17 1 C17.99 1 18.98 1 20 1 C20.08132642 4.04221065 20.14065374 7.0822238 20.1875 10.125 C20.21263672 10.9809375 20.23777344 11.836875 20.26367188 12.71875 C20.32355622 17.90872628 19.95205194 21.52546123 17 26 C13.30846481 27.8457676 9.02978061 27.48175083 5 27 C1.90200019 24.80873184 1.19647888 23.58943664 0 20 C-0.08106686 18.44578271 -0.10756898 16.88832973 -0.09765625 15.33203125 C-0.09443359 14.43935547 -0.09121094 13.54667969 -0.08789062 12.62695312 C-0.07951172 11.69818359 -0.07113281 10.76941406 -0.0625 9.8125 C-0.05798828 8.87212891 -0.05347656 7.93175781 -0.04882812 6.96289062 C-0.03704626 4.64186288 -0.02059558 2.32096356 0 0 Z " fill="#101010" transform="translate(78,222)"/>
<path d="M0 0 C4.29 0 8.58 0 13 0 C13 0.99 13 1.98 13 3 C9.7 3 6.4 3 3 3 C3 5.97 3 8.94 3 12 C5.97 12 8.94 12 12 12 C12 12.99 12 13.98 12 15 C9.03 15 6.06 15 3 15 C3 17.97 3 20.94 3 24 C6.63 24 10.26 24 14 24 C14 24.99 14 25.98 14 27 C9.38 27 4.76 27 0 27 C0 18.09 0 9.18 0 0 Z " fill="#0C0C0C" transform="translate(60,222)"/>
<path d="M0 0 C1.31677734 0.00966797 1.31677734 0.00966797 2.66015625 0.01953125 C4.9375 0.1875 4.9375 0.1875 6.9375 1.1875 C6.6075 2.1775 6.2775 3.1675 5.9375 4.1875 C5.27363281 4.12949219 4.60976562 4.07148438 3.92578125 4.01171875 C-0.59598124 3.78067979 -3.26286254 3.69172477 -7.1875 6.125 C-9.67444102 10.18700367 -9.85406623 13.52975764 -9.0625 18.1875 C-7.78250938 21.46784807 -7.12566435 22.14539043 -4.0625 24.1875 C-1.54665109 24.42900773 -1.54665109 24.42900773 1.125 24.3125 C2.47658203 24.28542969 2.47658203 24.28542969 3.85546875 24.2578125 C4.54253906 24.23460937 5.22960937 24.21140625 5.9375 24.1875 C6.2675 24.8475 6.5975 25.5075 6.9375 26.1875 C2.74392919 28.28428541 -2.50725309 27.74020329 -7.0625 27.1875 C-10.54492391 24.66103559 -11.71476822 23.23069535 -13.0625 19.1875 C-14.05695007 10.13800438 -14.05695007 10.13800438 -12.05078125 6.203125 C-8.49893082 1.89397313 -5.53236951 -0.08962602 0 0 Z " fill="#0C0C0C" transform="translate(192.0625,221.8125)"/>
<path d="M0 0 C1.32 0 2.64 0 4 0 C4 8.91 4 17.82 4 27 C2.68 27 1.36 27 0 27 C0 18.09 0 9.18 0 0 Z " fill="#474747" transform="translate(418,222)"/>
<path d="M0 0 C0.66 0.33 1.32 0.66 2 1 C1.525625 1.7425 1.05125 2.485 0.5625 3.25 C-2.07597927 7.89372351 -2.90860663 12.66457732 -2 18 C-0.16666667 21.16666667 -0.16666667 21.16666667 3 23 C5.80730687 23.39956124 8.14153994 23.24224238 11 23 C10.67 23.99 10.34 24.98 10 26 C2.014997 26.62627475 2.014997 26.62627475 -1.9375 24.1875 C-6.33409329 19.52444652 -6.52890485 16.22719982 -6.46875 10.03125 C-5.75827479 5.43684367 -3.47242562 2.93502642 0 0 Z " fill="#0F0F0F" transform="translate(433,223)"/>
<path d="M0 0 C0.66 0.33 1.32 0.66 2 1 C1.525625 1.7425 1.05125 2.485 0.5625 3.25 C-2.07597927 7.89372351 -2.90860663 12.66457732 -2 18 C-0.16666667 21.16666667 -0.16666667 21.16666667 3 23 C5.80730687 23.39956124 8.14153994 23.24224238 11 23 C10.67 23.99 10.34 24.98 10 26 C2.014997 26.62627475 2.014997 26.62627475 -1.9375 24.1875 C-6.33409329 19.52444652 -6.52890485 16.22719982 -6.46875 10.03125 C-5.75827479 5.43684367 -3.47242562 2.93502642 0 0 Z " fill="#0F0F0F" transform="translate(317,223)"/>
<path d="M0 0 C5.41538462 -0.36923077 5.41538462 -0.36923077 8.375 1.5 C8.91125 1.995 9.4475 2.49 10 3 C9.6875 5.375 9.6875 5.375 9 8 C5.5647952 10.29013653 4.014669 10.17842973 0 10 C0 6.7 0 3.4 0 0 Z " fill="#F8F8F8" transform="translate(138,236)"/>
<path d="M0 0 C0.66 0 1.32 0 2 0 C2 7.59 2 15.18 2 23 C5.63 23 9.26 23 13 23 C13 23.99 13 24.98 13 26 C8.71 26 4.42 26 0 26 C0 17.42 0 8.84 0 0 Z " fill="#080808" transform="translate(41,223)"/>
<path d="M0 0 C5.94 0 11.88 0 18 0 C18 0.66 18 1.32 18 2 C15.36 2 12.72 2 10 2 C10 9.92 10 17.84 10 26 C9.34 26 8.68 26 8 26 C8 18.08 8 10.16 8 2 C5.36 2 2.72 2 0 2 C0 1.34 0 0.68 0 0 Z " fill="#000000" transform="translate(395,223)"/>
<path d="M0 0 C5.94 0 11.88 0 18 0 C18 0.66 18 1.32 18 2 C15.36 2 12.72 2 10 2 C10 9.92 10 17.84 10 26 C9.34 26 8.68 26 8 26 C8 18.08 8 10.16 8 2 C5.36 2 2.72 2 0 2 C0 1.34 0 0.68 0 0 Z " fill="#000000" transform="translate(291,223)"/>
<path d="M0 0 C1.32 0 2.64 0 4 0 C4 8.58 4 17.16 4 26 C3.34 26 2.68 26 2 26 C1.67 19.4 1.34 12.8 1 6 C0.01 6.33 -0.98 6.66 -2 7 C-1.34 4.69 -0.68 2.38 0 0 Z " fill="#030303" transform="translate(364,223)"/>
<path d="M0 0 C1.90389849 2.85584773 2.69462177 4.9311762 3.625 8.1875 C3.88539063 9.08855469 4.14578125 9.98960937 4.4140625 10.91796875 C4.60742188 11.60503906 4.80078125 12.29210937 5 13 C2.03 13 -0.94 13 -4 13 C-2.125 3.89285714 -2.125 3.89285714 0 0 Z " fill="#EAEAEA" transform="translate(384,226)"/>
<path d="M0 0 C1.90389849 2.85584773 2.69462177 4.9311762 3.625 8.1875 C3.88539063 9.08855469 4.14578125 9.98960937 4.4140625 10.91796875 C4.60742188 11.60503906 4.80078125 12.29210937 5 13 C2.03 13 -0.94 13 -4 13 C-2.125 3.89285714 -2.125 3.89285714 0 0 Z " fill="#EAEAEA" transform="translate(251,226)"/>
<path d="M0 0 C1.90389849 2.85584773 2.69462177 4.9311762 3.625 8.1875 C3.88539063 9.08855469 4.14578125 9.98960937 4.4140625 10.91796875 C4.60742188 11.60503906 4.80078125 12.29210937 5 13 C2.03 13 -0.94 13 -4 13 C-2.125 3.89285714 -2.125 3.89285714 0 0 Z " fill="#EAEAEA" transform="translate(165,226)"/>
<path d="M0 0 C5.75 -0.125 5.75 -0.125 8 1 C8.1875 3.375 8.1875 3.375 8 6 C4.77208445 8.1519437 3.71599191 8.20086443 0 8 C0 5.36 0 2.72 0 0 Z " fill="#FBFBFB" transform="translate(138,225)"/>
<path d="M0 0 C0.33 0 0.66 0 1 0 C1 7.26 1 14.52 1 22 C0.67 22 0.34 22 0 22 C-0.33 16.39 -0.66 10.78 -1 5 C-1.99 6.98 -2.98 8.96 -4 11 C-4.99 11 -5.98 11 -7 11 C-6.01 8.03 -5.02 5.06 -4 2 C-2.68 2 -1.36 2 0 2 C0 1.34 0 0.68 0 0 Z " fill="#4D4D4D" transform="translate(365,227)"/>
<path d="M0 0 C1.62490954 -0.02698189 3.24994633 -0.04638757 4.875 -0.0625 C5.77992188 -0.07410156 6.68484375 -0.08570313 7.6171875 -0.09765625 C10 0 10 0 12 1 C11.67 1.99 11.34 2.98 11 4 C10.31292969 3.98839844 9.62585938 3.97679687 8.91796875 3.96484375 C8.01691406 3.95582031 7.11585938 3.94679687 6.1875 3.9375 C5.29417969 3.92589844 4.40085938 3.91429687 3.48046875 3.90234375 C0.86586209 3.88990033 0.86586209 3.88990033 -2 5 C-1.34 3.35 -0.68 1.7 0 0 Z " fill="#202020" transform="translate(187,222)"/>
<path d="M0 0 C1.46726798 3.81489674 0.43336419 6.29011622 -1 10 C-1.99 9.67 -2.98 9.34 -4 9 C-3.38461538 3.46153846 -3.38461538 3.46153846 -1.4375 1.125 C-0.963125 0.75375 -0.48875 0.3825 0 0 Z " fill="#1C1C1C" transform="translate(381,229)"/>
<path d="M0 0 C1.46726798 3.81489674 0.43336419 6.29011622 -1 10 C-1.99 9.67 -2.98 9.34 -4 9 C-3.38461538 3.46153846 -3.38461538 3.46153846 -1.4375 1.125 C-0.963125 0.75375 -0.48875 0.3825 0 0 Z " fill="#1C1C1C" transform="translate(248,229)"/>
<path d="M0 0 C1.46726798 3.81489674 0.43336419 6.29011622 -1 10 C-1.99 9.67 -2.98 9.34 -4 9 C-3.38461538 3.46153846 -3.38461538 3.46153846 -1.4375 1.125 C-0.963125 0.75375 -0.48875 0.3825 0 0 Z " fill="#1C1C1C" transform="translate(162,229)"/>
<path d="M0 0 C2.64 0 5.28 0 8 0 C7.67 0.99 7.34 1.98 7 3 C4.93359375 3.73046875 4.93359375 3.73046875 2.4375 4.1875 C1.61121094 4.34605469 0.78492188 4.50460938 -0.06640625 4.66796875 C-1.02353516 4.83232422 -1.02353516 4.83232422 -2 5 C-1.34 3.35 -0.68 1.7 0 0 Z " fill="#1B1B1B" transform="translate(435,222)"/>
<path d="M0 0 C2.64 0 5.28 0 8 0 C7.67 0.99 7.34 1.98 7 3 C4.93359375 3.73046875 4.93359375 3.73046875 2.4375 4.1875 C1.61121094 4.34605469 0.78492188 4.50460938 -0.06640625 4.66796875 C-1.02353516 4.83232422 -1.02353516 4.83232422 -2 5 C-1.34 3.35 -0.68 1.7 0 0 Z " fill="#1B1B1B" transform="translate(319,222)"/>
</svg>
